<svg width="1440" height="1160" viewBox="0 0 1440 1160" fill="none" xmlns="http://www.w3.org/2000/svg">
<path d="M1467.45 143.41L1341.99 444.974L1273.87 214.892L1203.56 451.898L1111.94 143.41L942.31 715.264H1111.94H1125.34L1104.25 786.745H1273.87H1443.5L1425.7 726.433H1467.45V143.41Z" fill="#64DDDA"/>
<path d="M267.977 250.633L210.629 487.639L135.923 179.151L59.8988 493.67L-70.6172 134.475V583.469V715.264H6.06643L-2.5028 751.004H135.923H146.909L129.551 822.486H267.977H406.403L267.977 250.633Z" fill="#64DDDA"/>
<path d="M1341.99 444.973L1273.87 214.892V786.745H1443.5L1425.7 726.432L1341.99 444.973Z" fill="#60C6C1"/>
<path d="M135.264 181.832L146.03 786.745H-23.5967L135.264 181.832Z" fill="#60C6C1"/>
<path d="M1111.94 143.41L1054.15 337.974L1111.94 715.264H1125.34H1242.23L1111.94 143.41Z" fill="#60C6C1"/>
<path d="M838.6 196.128L797.951 324.572L695.12 0.223389L610.087 268.95L560.429 111.69L362.019 737.825H560.429H666.995L640.189 822.486H838.6H1036.79L838.6 196.128Z" fill="#64DDDA"/>
<path d="M551.86 134.475V706.328H362.019L551.86 134.475Z" fill="#60C6C1"/>
<path d="M736.209 129.561L797.951 324.572L736.429 706.328H723.026H580.425L736.209 129.561Z" fill="#60C6C1"/>
<path d="M560.429 111.69L559.331 115.041L533.184 197.245L551.64 173.567L560.429 220.476L566.801 184.736L574.492 195.905L583.5 184.512L560.429 111.69Z" fill="#9BF9F4"/>
<path d="M136.363 178.258L135.264 181.832L114.83 266.493L127.574 240.357L136.363 287.267L142.735 251.526L150.425 262.695L154.82 257.111L136.363 178.258Z" fill="#9BF9F4"/>
<path d="M268.197 250.186L267.098 253.536L246.664 338.198L259.408 312.062L268.197 358.972L274.569 323.231L282.259 334.4L286.654 328.816L268.197 250.186Z" fill="#9BF9F4"/>
<path d="M837.941 195.681L836.842 199.032L810.915 281.459L829.372 257.781L837.941 304.691L844.533 268.95L852.223 280.119L861.012 268.727L837.941 195.681Z" fill="#9BF9F4"/>
<path d="M695.34 0L694.242 3.3507L668.095 85.778L686.112 61.8763L695.34 108.786L702.372 73.0454L710.721 84.2144L718.631 74.609L695.34 0Z" fill="#9BF9F4"/>
<path d="M1112.16 143.41L1111.06 146.761L1086.45 229.412L1102.71 205.286L1112.16 252.196L1119.19 216.455L1127.32 227.625L1134.57 219.136L1112.16 143.41Z" fill="#9BF9F4"/>
<path d="M1273.21 215.115L1272.11 218.466L1248.17 301.563L1263.99 276.992L1273.21 323.901L1280.24 288.161L1288.59 299.33L1296.5 291.735L1273.21 215.115Z" fill="#9BF9F4"/>
<path d="M1507 420.077C1501.18 419.176 1496.61 423.571 1496.61 423.571C1496.61 423.571 1499.41 426.374 1503.82 431.428L1507 420.077Z" fill="#2C1C0D"/>
<path d="M-70.6172 862.248H1458.72V592.832C1456.64 592.013 1454.64 591.111 1452.87 590.132C1448.16 587.526 1447.41 584.377 1446.73 581.519C1446.02 578.546 1445.39 575.888 1440.45 574.484C1436.46 573.35 1431.2 575.623 1425.01 578.294C1416.19 582.105 1405.49 586.725 1393.96 583.399C1383.96 580.597 1377.11 584.459 1371.08 587.855C1365.31 591.11 1360.3 593.936 1354 590.051C1347.05 585.759 1349.67 582.444 1352.03 579.463C1354.04 576.93 1355.85 574.64 1351.44 572.197C1346.92 569.627 1343.76 569.374 1338.66 568.966C1332.88 568.504 1324.6 567.842 1309.03 563.372C1299.96 560.769 1296.51 559.777 1296.58 558.983C1296.63 558.494 1298.01 558.079 1300.24 557.41C1306.1 555.652 1317.81 552.137 1326.59 540.901C1332.14 533.802 1334.18 531.188 1333.86 531.001C1333.67 530.892 1332.68 531.606 1331.11 532.736C1326.86 535.807 1318.34 541.947 1310.08 542.993C1297.05 544.645 1296.52 540.231 1295.54 532.034L1295.54 532.032C1295.27 529.85 1294.98 527.4 1294.41 524.725C1294.32 524.308 1294.24 523.899 1294.15 523.499C1294.02 522.864 1293.89 522.25 1293.77 521.66C1291.65 511.256 1290.97 507.928 1281.47 519.351C1273.56 528.893 1258 531.415 1245.21 520.913C1242.09 518.308 1237.67 522.414 1233.79 526.019C1228.93 530.546 1224.91 534.282 1225.37 522.948C1226.17 507.611 1220.53 509.433 1211.98 512.197C1209.17 513.106 1206.04 514.116 1202.73 514.652C1197.17 515.558 1195.06 517.474 1193 519.346C1190.17 521.914 1187.43 524.402 1176 524.096C1162.14 523.725 1157.91 526.054 1150.8 529.976C1147.78 531.646 1144.23 533.603 1139.19 535.764C1122.32 543.002 1119.21 542.927 1109.9 527.354C1103.58 516.535 1091.66 521.549 1078.31 527.168C1072.42 529.645 1066.24 532.241 1060.15 533.648C1047.46 536.571 1036.61 527.5 1025.27 518.011C1024.5 517.371 1023.73 516.728 1022.96 516.087C1022.44 515.655 1021.92 515.224 1021.39 514.794C1012.31 507.268 1009.31 513.742 1006 520.874C1004.55 523.995 1003.05 527.243 1000.95 529.498C999.135 531.498 996.996 535.428 994.469 540.071C987.424 553.017 977.358 571.513 962.869 569.237C953.032 567.691 947.507 563.096 942.767 559.154C938.022 555.208 934.066 551.918 927.362 553.003C921.15 554.015 920.64 557.456 920.11 561.031C919.516 565.042 918.897 569.221 910.168 570.327C902.646 571.281 897.957 570.222 893.49 569.213C888.153 568.008 883.133 566.874 873.974 569.326C868.313 570.843 863.005 573.256 858.091 575.489C848.403 579.894 840.244 583.603 833.917 578.374C829.08 574.377 830.182 570.53 831.188 567.016C832.166 563.602 833.054 560.501 828.318 557.881C823.47 555.199 822.586 557.774 821.161 561.922C819.76 565.997 817.839 571.59 811.124 575.205C801.024 580.644 796.863 577.805 786.078 570.446C782.396 567.933 777.943 564.895 772.217 561.478C764.946 557.14 762.374 555.605 761.647 556.015C761.25 556.239 761.403 557.045 761.641 558.29C762.313 561.813 763.657 568.859 755.097 576.239C743.261 586.458 741.322 584.995 733.03 578.74C729.192 575.845 723.994 571.924 715.824 567.659C702.925 561.002 702.925 561.003 704.031 563.892C705.137 566.781 707.35 572.56 698.876 577.46C683.827 586.164 682.199 585.118 673.018 579.216C671.859 578.472 670.58 577.65 669.139 576.76C656.277 568.823 652.853 571.161 642.483 583.64C632.112 596.12 574.494 627.638 545.124 621.792L545.121 621.792L545.118 621.791L545.114 621.79C534.575 619.633 531.599 619.024 531.545 618.289C531.524 618 531.956 617.691 532.558 617.26C534.688 615.736 538.95 612.686 532.776 603.581C525.522 593.079 528.99 590.524 533.35 587.311C536.544 584.958 540.217 582.251 540.507 575.811V575.809C540.714 571.214 540.796 569.392 540.527 569.361C540.35 569.34 540.022 570.092 539.477 571.338C538.104 574.482 535.359 580.769 530.21 585.727C519.914 595.643 510.377 587.762 510.377 587.762C510.377 587.762 487.756 579.634 474.355 581.802C474.245 585.285 474.211 586.363 473.505 586.994C473.189 587.277 472.739 587.47 472.086 587.75C469.977 588.655 465.758 590.464 457.161 599.126C443.084 613.148 442.817 612.617 438.308 603.671C437.24 601.551 435.934 598.959 434.15 595.977L434.149 595.975C430.802 590.38 429.861 588.806 428.964 588.821C428.613 588.827 428.269 589.076 427.79 589.423C426.087 590.655 422.681 593.12 411.213 590.263L411.21 590.263L411.205 590.261C404.478 588.586 401.7 587.893 401.582 586.994C401.499 586.361 402.734 585.625 404.837 584.371C409.93 581.336 420.116 575.266 429.019 560.269C429.225 555.761 429.287 554.419 430.014 554.151C430.322 554.038 430.749 554.117 431.358 554.23C433.403 554.61 437.493 555.369 445.967 550.468C462.915 540.666 450.591 522.623 440.516 524.847C435.308 525.997 434.432 529.328 433.389 533.293C432.414 536.999 431.294 541.259 426.355 544.811C416.132 552.163 406.202 556.933 393.487 543.867C389.771 540.082 386.594 541.362 383.651 542.546C380.234 543.922 377.134 545.17 373.876 538.211C369.038 527.877 363.669 530.505 353.126 535.666L353.124 535.667L353.115 535.671C350.447 536.977 347.447 538.445 344.041 539.906C336.626 543.12 334.266 549.485 332.2 555.058C329.625 562.004 327.505 567.721 316.624 564.583C309.84 562.682 307.755 562.098 307.287 561.075C307.08 560.621 307.191 560.081 307.35 559.301C307.87 556.763 308.91 551.687 301.196 538.791C293.592 525.886 293.592 525.886 292.928 531.271C292.264 536.656 290.936 547.425 280.677 556.059C273.751 561.769 271.446 563.67 270.724 563.362C270.364 563.208 270.398 562.505 270.449 561.451C270.602 558.284 270.908 551.949 261.139 547.839C244.718 540.93 244.395 541.679 240.354 551.07C239.587 552.853 238.686 554.946 237.515 557.358C232.68 567.322 218.273 568.18 205.155 568.961C198.369 569.366 191.927 569.749 187.333 571.362C183.155 572.829 180.249 574.564 177.44 576.242C171.191 579.973 165.424 583.417 147.202 582.973C131.608 582.579 125.99 593.24 121.169 602.388C117.893 608.606 114.984 614.125 109.562 615.002C96.1615 617.17 80.4137 601.465 80.4137 601.465C80.4137 601.465 91.101 586.571 81.786 570.999C78.2628 565.157 77.4117 563.746 76.8299 563.809C76.6446 563.83 76.4867 563.999 76.2784 564.223C75.4162 565.149 73.6919 567.001 65.598 563.004C49.41 555.009 66.2102 550.335 66.2102 550.335L39.5534 557.215C39.5534 557.215 28.6444 579.8 19.1817 569.355C15.8078 567.488 14.8028 566.932 14.0972 566.204C13.7978 565.895 13.5524 565.555 13.2027 565.07C12.0291 563.444 9.68182 560.192 0.182106 551.029C-9.68854 541.509 -12.636 536.965 -13.1896 534.797L-12.1661 532.818C-12.1661 532.818 -13.7017 532.791 -13.1896 534.797L-30.3386 567.958C-30.969 569.203 -31.4046 570.313 -31.7996 571.32C-33.7797 576.367 -34.7413 578.818 -54.1099 582.605C-61.3141 583.959 -64.0551 584.475 -64.2875 584.09C-64.4303 583.853 -63.6269 583.277 -62.33 582.348C-58.9214 579.904 -52.1041 575.017 -50.0981 567.429C-47.4786 556.962 -49.922 556.033 -58.015 552.959C-61.2819 551.718 -65.4707 550.127 -70.6172 547.418V862.248Z" fill="#2C1C0D"/>
<g clip-path="url(#clip0_576_35)">
<path d="M1462.92 894.186L1430.9 924.692C1398.88 954.468 1334.84 1016.58 1270.81 1040.33C1206.77 1064.07 1142.73 1053.11 1078.69 1046.35C1014.65 1040.33 950.615 1040.33 886.577 1016.03C822.539 991.003 758.501 943.508 694.463 967.256C630.425 991.003 566.386 1089.65 502.348 1107.37C438.31 1126.18 374.272 1064.07 310.234 1040.33C246.196 1016.58 182.157 1027.54 118.119 1064.62C54.0811 1100.61 -9.95715 1162.72 -73.9954 1180.44C-138.034 1199.25 -202.072 1173.68 -266.11 1137.69C-330.148 1100.61 -394.186 1053.11 -458.224 1028.09C-522.263 1003.79 -586.301 1003.79 -650.339 1016.03C-714.377 1027.54 -778.415 1053.11 -842.453 1040.33C-906.492 1027.54 -970.53 980.043 -1034.57 985.523C-1098.61 991.003 -1162.64 1053.11 -1226.68 1095.13C-1290.72 1137.14 -1354.76 1162.72 -1418.8 1168.2C-1482.84 1173.68 -1546.87 1162.72 -1610.91 1168.2C-1674.95 1173.68 -1738.99 1199.25 -1803.03 1204.73C-1867.06 1210.21 -1931.1 1199.25 -1995.14 1198.7C-2059.18 1199.25 -2123.22 1210.21 -2187.26 1174.23C-2251.29 1137.14 -2315.33 1053.11 -2379.37 1046.35C-2443.41 1040.33 -2507.45 1113.4 -2571.48 1107.37C-2635.52 1100.61 -2699.56 1016.58 -2763.6 1016.03C-2827.64 1016.58 -2891.68 1100.61 -2955.71 1101.16C-3019.75 1100.61 -3083.79 1016.58 -3115.81 973.284L-3147.83 930.721V857.651H-3115.81C-3083.79 857.651 -3019.75 857.651 -2955.71 857.651C-2891.68 857.651 -2827.64 857.651 -2763.6 857.651C-2699.56 857.651 -2635.52 857.651 -2571.48 857.651C-2507.45 857.651 -2443.41 857.651 -2379.37 857.651C-2315.33 857.651 -2251.29 857.651 -2187.26 857.651C-2123.22 857.651 -2059.18 857.651 -1995.14 857.651C-1931.1 857.651 -1867.06 857.651 -1803.03 857.651C-1738.99 857.651 -1674.95 857.651 -1610.91 857.651C-1546.87 857.651 -1482.84 857.651 -1418.8 857.651C-1354.76 857.651 -1290.72 857.651 -1226.68 857.651C-1162.64 857.651 -1098.61 857.651 -1034.57 857.651C-970.53 857.651 -906.492 857.651 -842.453 857.651C-778.415 857.651 -714.377 857.651 -650.339 857.651C-586.301 857.651 -522.263 857.651 -458.224 857.651C-394.186 857.651 -330.148 857.651 -266.11 857.651C-202.072 857.651 -138.034 857.651 -73.9954 857.651C-9.95715 857.651 54.0811 857.651 118.119 857.651C182.157 857.651 246.196 857.651 310.234 857.651C374.272 857.651 438.31 857.651 502.348 857.651C566.386 857.651 630.425 857.651 694.463 857.651C758.501 857.651 822.539 857.651 886.577 857.651C950.615 857.651 1014.65 857.651 1078.69 857.651C1142.73 857.651 1206.77 857.651 1270.81 857.651C1334.84 857.651 1398.88 857.651 1430.9 857.651H1462.92V894.186Z" fill="url(#paint0_linear_576_35)"/>
</g>
<path fill-rule="evenodd" clip-rule="evenodd" d="M263.401 392.007C266.209 391.92 268.14 392.621 270.949 394.637C272.967 396.04 275.074 398.057 275.513 399.021C276.039 399.986 276.39 401.476 276.39 402.353C276.39 403.142 274.723 407.175 272.616 411.296C270.598 415.416 267.35 421.115 265.419 424.009C263.488 426.902 259.275 431.987 250.147 441.544L250.06 452.065C249.972 457.851 249.621 465.917 249.357 469.863C248.831 475.649 248.392 477.49 246.988 478.718C245.934 479.595 242.16 480.559 237.333 481.26C233.032 481.874 227.064 482.751 218.901 484.154L216.444 496.165C215.127 502.741 213.723 511.421 213.372 515.454C213.021 519.399 212.494 522.643 212.143 522.643C211.704 522.643 211.441 523.257 211.441 523.958C211.441 524.66 210.739 525.186 209.949 525.098H206.877C205.999 525.186 205.297 525.975 205.297 526.851C205.385 528.079 205.121 528.167 204.244 527.202C203.366 526.413 202.488 526.413 200.733 527.027C198.626 527.728 198.1 527.641 197.398 526.15C196.871 525.186 195.467 524.134 194.15 523.871C192.307 523.52 191.166 523.871 189.674 525.449C188.621 526.501 187.743 527.991 187.743 528.605C187.743 529.131 186.426 529.92 184.934 530.183C183.354 530.534 181.687 531.235 181.336 531.761C180.809 532.463 180.458 532.463 180.195 531.674C180.019 530.972 178.264 530.534 175.894 530.534C172.734 530.534 171.944 530.797 171.944 532.112C171.903 532.772 171.881 533.122 171.76 533.16C171.623 533.204 171.361 532.855 170.803 532.112C170.189 531.235 169.399 530.622 168.872 530.534C168.346 530.534 167.468 525.361 166.854 518.961C166.152 512.56 165.098 506.248 164.396 504.933C163.694 503.53 162.992 502.565 162.816 502.741C162.641 502.829 161.237 505.897 159.657 509.492C157.024 515.717 156.76 516.857 156.234 530.534C155.883 540.003 155.97 545.263 156.585 545.614C157.024 545.965 158.34 546.315 159.481 546.315C161.061 546.315 161.5 545.702 161.851 542.808C162.114 540.88 162.816 539.038 163.431 538.775C163.957 538.425 165.362 538.425 166.503 538.775C168.258 539.214 168.346 539.74 167.995 543.247C167.731 545.439 167.819 547.017 168.258 546.841C168.609 546.666 169.399 544.737 170.014 542.458C170.803 539.389 171.506 538.425 172.822 538.425C173.788 538.425 174.753 537.899 175.016 537.372C175.367 536.496 175.543 536.496 175.894 537.372C176.157 537.899 177.737 538.425 179.405 538.425C181.424 538.425 182.828 537.899 183.442 536.934C184.057 535.794 184.408 535.707 184.759 536.496C184.934 537.022 185.9 537.548 186.865 537.548C187.831 537.548 188.796 537.899 189.06 538.425C189.323 538.951 190.376 539.652 191.517 540.09C192.658 540.529 194.238 540.441 195.467 539.827C196.52 539.301 197.398 538.6 197.398 538.249C197.398 537.811 198.451 536.408 199.855 535.005C201.435 533.31 202.518 532.755 203.103 533.339C203.688 533.924 204.858 533.807 206.614 532.989C208.018 532.375 209.422 530.885 209.773 529.657C210.388 527.553 210.388 527.553 210.475 529.482C210.563 530.534 210.826 531.411 211.265 531.411C211.616 531.411 212.406 536.846 213.021 543.422C213.723 550.085 214.513 555.784 214.776 556.135C215.127 556.486 222.324 558.151 230.75 559.905C239.176 561.658 246.724 563.237 247.426 563.5C248.129 563.675 249.796 565.341 251.113 567.182C251.289 567.417 251.477 567.666 251.676 567.931C252.961 569.639 254.725 571.984 257.081 575.248L243.477 581.561L232.506 578.317C226.449 576.563 220.481 574.722 219.165 574.284C217.76 573.845 216.707 573.758 216.707 574.196C216.707 574.547 217.673 583.49 218.901 594.098C219.651 600.571 220.466 607.924 221.127 613.889C221.55 617.701 221.909 620.946 222.149 623.031C222.939 631.097 222.851 633.114 221.798 635.306C221.008 636.796 219.077 638.637 217.058 639.602C214.864 640.654 212.67 641.004 211.002 640.654C209.598 640.391 207.316 639.076 205.911 637.76C203.805 635.656 203.366 634.078 202.313 626.538C201.611 621.716 199.767 606.46 198.1 592.52C196.081 574.547 194.852 567.357 194.15 567.357C193.36 567.357 193.185 568.322 193.448 570.689C193.711 572.443 193.975 575.336 193.975 577.002C194.062 578.755 191.517 587.172 188.27 596.29C185.022 605.233 182.214 612.685 181.95 612.948C181.687 613.211 181.687 611.809 182.038 609.88C182.301 607.951 183.091 601.025 183.793 594.537C184.391 589.632 185.088 583.123 185.62 578.155L185.628 578.089C185.797 576.512 185.949 575.093 186.075 573.933C186.514 569.111 186.778 564.99 186.514 564.727C186.163 564.464 185.724 564.639 185.373 565.078C184.934 565.429 183.003 580.684 180.985 598.833C178.878 616.981 177.035 632.588 176.86 633.552C176.596 634.516 175.367 636.445 173.963 637.76C172.647 639.076 170.365 640.391 168.872 640.741C167.205 641.004 165.011 640.566 162.816 639.602C160.622 638.55 158.867 636.884 157.989 635.043C156.673 632.237 156.76 630.483 159.481 606.986C160.481 598.217 161.622 588.745 162.48 581.618L162.481 581.615L162.481 581.611C162.979 577.483 163.381 574.141 163.606 572.179C164.308 566.831 165.098 561.658 165.362 560.606C165.625 559.467 165.449 558.59 164.923 558.59C164.396 558.59 163.782 559.993 163.431 561.746C162.992 563.5 162.553 565.078 162.29 565.165C162.026 565.341 160.71 565.165 159.306 564.902C157.111 564.376 156.848 564.026 157.287 561.658C157.367 561.32 157.451 560.96 157.536 560.593C157.828 559.342 158.137 558.02 158.34 557.275C158.779 555.96 158.428 555.434 156.848 554.995C155.531 554.644 154.039 555.083 152.635 556.135C151.406 557.012 149.475 557.801 148.247 557.713C147.018 557.713 145.175 557.012 144.209 556.135C143.156 555.346 141.927 553.855 141.401 552.891C140.962 551.927 139.733 550.874 138.68 550.524C137.626 550.085 136.837 550.173 136.837 550.699C136.837 551.225 136.047 551.576 135.081 551.576C134.116 551.576 133.15 551.225 132.887 550.699C132.624 550.173 133.15 547.28 134.028 544.123C134.993 540.266 135.871 538.512 136.661 538.863C137.188 539.126 138.153 539.301 138.592 539.301C139.119 539.301 139.47 539.915 139.47 540.616C139.47 541.318 139.908 541.932 140.347 541.932C140.874 541.932 141.401 540.616 141.664 539.126C141.839 537.548 142.19 531.148 142.366 524.835C142.717 513.613 142.805 513.262 150.88 494.149L158.955 493.973C160.134 493.95 161.479 493.884 162.889 493.786C179.356 508.346 184.584 513.701 184.568 516.073C184.525 516.349 184.5 516.5 184.5 516.5C184.544 516.369 184.567 516.228 184.568 516.073C184.905 513.899 186.332 503.995 185 500C183.828 496.483 183.572 491.746 183.516 489.843C185.087 489.337 186.554 488.826 187.743 488.362C191.342 486.959 196.871 484.329 199.943 482.576C203.015 480.734 207.755 477.227 210.475 474.772L210.652 474.614C215.392 470.386 215.508 470.283 225.045 468.811C230.399 468.021 234.875 467.145 235.139 466.882C235.402 466.619 235.665 463.024 236.016 451.626L230.575 454.169C227.503 455.572 221.885 457.588 218.024 458.553C212.582 459.955 210.826 460.131 210.388 459.254C210.037 458.728 209.685 457.939 209.685 457.588C209.685 457.15 211.178 456.448 213.021 455.922C214.776 455.309 218.638 453.73 221.534 452.328C224.431 450.837 228.819 448.207 231.189 446.453C234.612 443.911 235.753 442.42 236.28 439.965C236.631 437.949 237.772 436.02 239.352 434.968C240.668 433.916 242.424 433.127 243.301 433.215C244.179 433.215 245.934 431.286 247.778 428.217C249.445 425.411 251.99 420.151 253.483 416.556C254.887 412.962 256.73 406.474 257.52 402.09C257.672 401.333 257.821 400.586 257.964 399.866L257.965 399.862C258.653 396.415 259.218 393.582 259.363 393.147C259.539 392.446 261.206 392.007 263.401 392.007ZM262.786 392.884C263.488 392.884 265.156 393.322 266.56 393.848C267.877 394.287 270.247 396.04 271.826 397.531C273.406 399.109 274.635 401.213 274.635 402.265C274.635 403.931 274.108 404.282 271.739 404.282C269.983 404.282 267.526 403.317 265.156 401.652C263.137 400.249 261.206 398.145 260.943 397.005C260.592 395.953 260.68 394.55 260.943 393.936C261.294 393.41 262.172 392.884 262.786 392.884ZM189.937 548.069C192.307 548.069 193.097 548.507 193.448 549.822C193.711 550.787 193.536 551.751 193.009 552.014C192.483 552.277 191.956 552.102 191.693 551.576C191.429 551.05 190.288 550.699 189.06 550.699C187.655 550.699 186.865 550.173 186.865 549.384C186.865 548.507 187.831 548.069 189.937 548.069ZM202.401 556.047C183.706 552.102 168.083 548.946 167.644 548.946C167.205 548.946 166.59 549.647 166.327 550.524C165.976 551.313 165.888 552.014 165.976 552.102C166.113 552.17 178.102 555.118 194.697 559.199C199.381 560.351 204.431 561.593 209.685 562.886C233.559 568.76 253.219 573.407 253.307 573.319C253.395 573.144 251.99 571.303 250.147 569.111C247.251 565.692 246.198 564.99 241.634 564.113C239.949 563.798 232.928 562.347 223.525 560.403L223.513 560.401C217.242 559.105 209.913 557.59 202.401 556.047ZM166.415 553.417C166.854 553.417 186.514 558.239 253.131 574.985L248.304 577.265C243.828 579.281 243.214 579.369 239.527 578.317C237.333 577.703 225.133 574.196 212.319 570.426C205.974 568.603 198.897 566.543 192.581 564.705L192.573 564.702C186.136 562.829 180.488 561.185 177.211 560.256C170.716 558.327 165.186 556.573 164.923 556.398C164.66 556.135 164.747 555.346 165.098 554.645C165.449 553.943 166.064 553.329 166.415 553.417Z" fill="#2C1C0D"/>
<path d="M165.362 413.049C167.293 413.049 170.628 413.663 172.822 414.364C175.016 415.153 178.352 416.819 180.195 418.134C182.126 419.45 184.759 422.255 188.708 428.392L178.966 431.461L174.841 427.165C171.769 424.096 169.487 422.606 166.678 421.817C163.957 421.203 161.851 421.115 160.096 421.729C158.691 422.167 155.707 422.869 149.563 423.833L151.231 421.291C152.108 419.888 153.688 418.047 154.742 417.17C155.707 416.293 157.813 414.978 159.218 414.364C160.71 413.663 163.431 413.137 165.362 413.049Z" fill="#2C1C0D"/>
<path d="M167.117 426.727C165.186 425.85 161.412 425.061 158.779 424.885C156.146 424.71 152.547 424.885 150.88 425.324C149.212 425.762 146.842 426.902 145.614 427.779C144.385 428.655 142.542 430.76 141.401 432.425C140.26 434.091 138.943 436.985 138.416 438.913C137.978 440.842 137.714 444.437 137.978 446.804C138.153 449.259 139.206 453.204 140.26 455.572C141.313 458.027 143.419 461.271 144.999 462.849C146.579 464.427 147.983 465.654 148.247 465.654C148.51 465.654 147.369 462.936 145.789 459.692C143.858 455.835 142.717 452.065 142.454 448.558C142.103 444.525 142.366 442.596 143.595 440.316C144.472 438.65 146.316 436.458 147.632 435.494C149.475 434.179 151.319 433.653 154.654 433.741C157.199 433.741 160.096 434.267 161.237 434.793C162.29 435.406 164.747 437.248 166.678 438.913L170.189 441.982C169.048 454.081 169.224 455.133 171.33 459.517C172.559 462.147 174.753 465.391 176.07 466.706L178.527 469.161L186.778 458.202C184.759 450.048 184.408 447.506 184.759 447.243C185.11 446.979 187.919 446.103 191.166 445.226C194.326 444.437 199.241 443.736 202.049 443.736C204.77 443.736 207.052 443.472 207.052 443.122C207.052 442.683 205.911 440.755 204.419 438.738C203.015 436.634 200.119 434.091 198.1 433.039C195.467 431.724 192.658 431.11 189.06 431.11C185.637 431.023 182.828 431.549 180.985 432.601L178.088 434.091C172.296 429.444 169.048 427.516 167.117 426.727Z" fill="#2C1C0D"/>
<path d="M149.739 436.722C150.529 436.722 150.88 437.949 150.88 440.492C150.88 442.508 151.055 445.752 151.757 451.188L149.563 446.804C148.422 444.437 147.281 441.368 147.193 440.141C147.106 438.913 147.369 437.598 147.808 437.335C148.247 436.985 149.037 436.722 149.739 436.722Z" fill="#2C1C0D"/>
<path d="M207.667 449.873L206.614 445.927C198.451 445.664 194.589 446.015 192.834 446.453C190.99 446.892 188.708 447.681 187.743 448.119C186.075 448.996 186.075 449.171 187.304 453.818L188.621 458.64C182.477 466.794 180.721 469.337 180.721 469.6C180.721 469.863 182.126 470.652 183.793 471.353C185.461 472.055 188.357 472.668 190.201 472.668C191.956 472.668 195.555 471.704 198.1 470.476C201.084 469.074 203.454 467.145 204.858 465.041C205.999 463.199 207.316 459.955 207.842 457.764C208.369 455.046 208.369 452.591 207.667 449.873Z" fill="#2C1C0D"/>
<path d="M170.101 463.024C170.365 463.024 172.208 464.865 174.139 467.145C176.157 469.512 179.317 471.967 181.599 472.931C183.793 473.896 187.48 474.685 189.937 474.685C192.395 474.685 195.906 473.983 197.837 473.194C199.767 472.405 202.401 470.652 203.717 469.337C205.999 467.057 206.262 467.057 208.896 468.285C210.388 468.986 211.792 469.863 211.967 470.301C212.143 470.652 209.422 473.019 205.999 475.649C202.488 478.279 196.257 482.05 192.131 483.978C188.006 485.995 181.511 488.362 177.649 489.327C173.788 490.379 166.415 491.431 151.933 492.395L151.319 488.45C150.967 485.732 151.231 483.277 152.196 480.559C152.986 478.367 154.742 475.211 156.058 473.545C157.375 471.879 160.973 468.811 164.045 466.794C167.029 464.69 169.838 463.024 170.101 463.024Z" fill="#2C1C0D"/>
<path d="M156.321 470.301C158.34 468.197 159.393 466.531 158.691 466.531C157.989 466.619 154.478 467.758 150.88 469.074C147.281 470.476 140.523 473.37 135.959 475.474C131.395 477.666 122.618 482.225 116.474 485.644C110.242 489.151 100.588 494.762 94.9703 498.269C89.2653 501.689 78.9085 508.264 71.8869 512.823C64.5142 517.558 59.5113 521.328 60.038 521.766C60.2836 521.93 61.3887 522.761 63.014 523.984C64.8737 525.383 67.4153 527.295 70.1315 529.306C75.2221 533.076 83.5603 540.353 88.6509 545.439C93.7416 550.524 99.6221 557.187 101.729 560.343C103.835 563.5 106.644 568.409 108.048 571.303C109.365 574.196 111.032 579.544 111.734 583.139C112.349 586.734 113.665 591.117 114.455 592.783C115.333 594.449 118.054 597.868 120.511 600.236C122.969 602.69 128.147 606.285 132.009 608.302C135.871 610.23 142.717 613.211 147.106 614.877C151.582 616.455 155.444 617.595 155.619 617.332C155.883 617.069 156.848 609.967 157.813 601.551C158.867 593.134 160.096 583.051 160.534 579.193C161.061 575.336 161.412 571.127 161.412 569.812C161.412 567.708 160.973 567.27 157.901 566.481C155.093 565.779 154.478 565.253 154.917 564.113C155.18 563.237 155.707 561.22 155.97 559.642C156.321 557.976 156.234 556.836 155.707 556.836C155.268 556.836 154.039 557.45 153.074 558.151C152.108 558.941 149.826 559.467 148.071 559.467C145.614 559.467 144.034 558.765 142.278 557.099C140.874 555.697 139.47 554.031 139.206 553.329C138.767 552.365 138.504 552.277 138.153 553.154C137.802 553.943 136.837 554.031 134.203 553.329C131.746 552.716 130.693 552.014 130.78 550.962C130.78 550.085 131.483 546.666 132.36 543.247L132.399 543.1C133.94 537.196 133.962 537.112 136.661 537.372C139.382 537.548 139.47 537.372 139.557 534.304C139.557 532.463 139.908 526.676 140.26 521.328C140.874 512.473 141.225 510.895 145.087 502.039C148.422 494.412 149.3 491.343 149.388 487.398C149.475 484.592 150.178 480.471 151.143 478.192C152.021 475.825 154.39 472.318 156.321 470.301Z" fill="#2C1C0D"/>
<path d="M163.431 508.177C163.87 508.44 164.484 512.385 164.66 517.12C164.835 521.854 165.274 528.254 165.625 531.323C166.239 536.846 166.239 536.846 164.045 536.583C162.202 536.233 161.763 536.671 160.798 540.441C160.183 542.721 159.306 544.562 158.779 544.562C158.252 544.562 158.077 539.827 158.428 531.235C158.779 520.714 159.306 516.769 160.71 512.823C161.763 510.106 162.992 508.001 163.431 508.177Z" fill="#2C1C0D"/>
<path d="M196.081 527.29C195.379 526.15 194.15 525.273 193.448 525.273C192.834 525.273 191.605 526.15 190.815 527.202C189.937 528.254 189.323 530.446 189.411 532.024C189.498 533.602 189.937 535.707 190.376 536.671C190.903 537.636 192.131 538.425 193.272 538.425C194.326 538.337 195.642 537.723 196.257 536.846C196.871 536.057 197.398 533.953 197.398 532.287C197.398 530.622 196.783 528.342 196.081 527.29Z" fill="#2C1C0D"/>
<defs>
<linearGradient id="paint0_linear_576_35" x1="1462.92" y1="857.651" x2="1462.92" y2="1206.26" gradientUnits="userSpaceOnUse">
<stop stop-color="#2C1C0D"/>
<stop offset="1"/>
</linearGradient>
<clipPath id="clip0_576_35">
<rect width="1537" height="302" fill="white" transform="matrix(-1 0 0 -1 1463 1160)"/>
</clipPath>
</defs>
</svg>
