<svg width="1581" height="804" viewBox="0 0 1581 804" fill="none" xmlns="http://www.w3.org/2000/svg">
<path d="M1581 1.07674C1575.17 0.176119 1570.61 4.5711 1570.61 4.5711C1570.61 4.5711 1573.41 7.37433 1577.82 12.4278L1581 1.07674Z" fill="#2C1C0D"/>
<path d="M3.37891 443.248H1532.72V173.832C1530.64 173.013 1528.64 172.111 1526.87 171.132C1522.16 168.526 1521.41 165.377 1520.73 162.519C1520.02 159.546 1519.39 156.888 1514.45 155.484C1510.46 154.35 1505.19 156.623 1499.01 159.294C1490.18 163.105 1479.49 167.725 1467.96 164.399C1457.96 161.597 1451.1 165.459 1445.08 168.855C1439.31 172.11 1434.29 174.936 1428 171.051C1421.04 166.759 1423.67 163.444 1426.03 160.463C1428.03 157.93 1429.85 155.64 1425.43 153.197C1420.92 150.627 1417.76 150.374 1412.66 149.966C1406.87 149.504 1398.6 148.842 1383.03 144.372C1373.96 141.769 1370.5 140.777 1370.58 139.983C1370.62 139.494 1372.01 139.079 1374.24 138.41C1380.09 136.652 1391.81 133.137 1400.59 121.901C1406.14 114.802 1408.18 112.188 1407.86 112.001C1407.67 111.892 1406.68 112.606 1405.11 113.736C1400.85 116.807 1392.33 122.947 1384.08 123.993C1371.04 125.645 1370.51 121.231 1369.53 113.034L1369.53 113.032C1369.27 110.85 1368.98 108.4 1368.41 105.725C1368.32 105.308 1368.23 104.899 1368.15 104.499C1368.02 103.864 1367.89 103.25 1367.77 102.66C1365.64 92.256 1364.96 88.9284 1355.47 100.351C1347.55 109.893 1331.99 112.415 1319.2 101.913C1316.08 99.3075 1311.67 103.414 1307.79 107.019C1302.92 111.546 1298.91 115.282 1299.37 103.948C1300.16 88.6106 1294.52 90.433 1285.97 93.1973C1283.17 94.1056 1280.04 95.1163 1276.72 95.6524C1271.17 96.5584 1269.06 98.4736 1266.99 100.346C1264.16 102.914 1261.42 105.402 1249.99 105.096C1236.13 104.725 1231.91 107.054 1224.8 110.976C1221.77 112.646 1218.23 114.603 1213.19 116.764C1196.31 124.002 1193.21 123.927 1183.89 108.354C1177.58 97.5347 1165.66 102.549 1152.3 108.168C1146.41 110.645 1140.24 113.241 1134.15 114.648C1121.46 117.571 1110.61 108.5 1099.26 99.0114C1098.5 98.3709 1097.73 97.7284 1096.96 97.0875C1096.44 96.6553 1095.91 96.2236 1095.39 95.794C1086.31 88.2675 1083.31 94.7419 1080 101.874C1078.55 104.995 1077.04 108.243 1074.95 110.498C1073.13 112.498 1070.99 116.428 1068.47 121.071C1061.42 134.017 1051.35 152.513 1036.87 150.237C1027.03 148.691 1021.5 144.096 1016.76 140.154C1012.02 136.208 1008.06 132.918 1001.36 134.003C995.146 135.015 994.636 138.456 994.107 142.031C993.512 146.042 992.893 150.221 984.164 151.327C976.642 152.281 971.953 151.222 967.486 150.213C962.149 149.008 957.129 147.874 947.97 150.326C942.309 151.843 937.001 154.256 932.087 156.489C922.399 160.894 914.24 164.603 907.913 159.374C903.076 155.377 904.178 151.53 905.184 148.016C906.162 144.602 907.05 141.501 902.314 138.881C897.467 136.199 896.582 138.774 895.157 142.922C893.757 146.997 891.835 152.59 885.12 156.205C875.02 161.644 870.859 158.805 860.074 151.446C856.392 148.933 851.939 145.895 846.213 142.478C838.942 138.14 836.37 136.605 835.643 137.015C835.246 137.239 835.399 138.045 835.637 139.29C836.309 142.813 837.653 149.859 829.093 157.239C817.257 167.458 815.318 165.995 807.026 159.74C803.188 156.845 797.99 152.924 789.82 148.659C776.921 142.002 776.921 142.003 778.027 144.892C779.133 147.781 781.346 153.56 772.872 158.46C757.823 167.164 756.195 166.118 747.014 160.216C745.855 159.472 744.577 158.65 743.135 157.76C730.273 149.823 726.849 152.161 716.479 164.64C706.108 177.12 648.49 208.638 619.12 202.792L619.117 202.792L619.114 202.791L619.11 202.79C608.571 200.633 605.595 200.024 605.541 199.289C605.52 199 605.952 198.691 606.554 198.26C608.684 196.736 612.946 193.686 606.772 184.581C599.518 174.079 602.986 171.524 607.346 168.311C610.54 165.958 614.213 163.251 614.503 156.811V156.809C614.71 152.214 614.792 150.392 614.523 150.361C614.346 150.34 614.018 151.092 613.473 152.338C612.1 155.482 609.355 161.769 604.206 166.727C593.91 176.643 584.373 168.762 584.373 168.762C584.373 168.762 561.752 160.634 548.351 162.802C548.241 166.285 548.207 167.363 547.501 167.994C547.185 168.277 546.735 168.47 546.082 168.75C543.973 169.655 539.754 171.464 531.157 180.126C517.08 194.148 516.813 193.617 512.305 184.671C511.236 182.551 509.93 179.959 508.146 176.977L508.145 176.975C504.798 171.38 503.857 169.806 502.96 169.821C502.609 169.827 502.265 170.076 501.786 170.423C500.083 171.655 496.678 174.12 485.209 171.263L485.206 171.263L485.201 171.261C478.475 169.586 475.696 168.893 475.578 167.994C475.495 167.361 476.73 166.625 478.833 165.371C483.926 162.336 494.112 156.266 503.015 141.269C503.222 136.761 503.283 135.419 504.01 135.151C504.318 135.038 504.746 135.117 505.354 135.23C507.399 135.61 511.489 136.369 519.963 131.468C536.911 121.666 524.587 103.623 514.512 105.847C509.304 106.997 508.428 110.328 507.385 114.293C506.41 117.999 505.29 122.259 500.351 125.811C490.128 133.163 480.198 137.933 467.483 124.867C463.767 121.082 460.59 122.362 457.647 123.546C454.23 124.922 451.13 126.17 447.872 119.211C443.034 108.877 437.665 111.505 427.122 116.666L427.12 116.667L427.111 116.671C424.443 117.977 421.443 119.445 418.037 120.906C410.622 124.12 408.262 130.485 406.196 136.058C403.621 143.004 401.501 148.721 390.62 145.583C383.836 143.682 381.751 143.098 381.283 142.075C381.076 141.621 381.187 141.081 381.346 140.301C381.866 137.763 382.906 132.687 375.192 119.791C367.588 106.886 367.588 106.886 366.924 112.271C366.26 117.656 364.932 128.425 354.673 137.059C347.747 142.769 345.442 144.67 344.72 144.362C344.36 144.208 344.394 143.505 344.445 142.451C344.598 139.284 344.904 132.949 335.135 128.839C318.714 121.93 318.391 122.679 314.35 132.07C313.583 133.853 312.682 135.946 311.511 138.358C306.676 148.322 292.269 149.18 279.151 149.961C272.365 150.366 265.923 150.749 261.329 152.362C257.151 153.829 254.245 155.564 251.437 157.242C245.187 160.973 239.42 164.417 221.198 163.973C205.604 163.579 199.986 174.24 195.165 183.388C191.889 189.606 188.98 195.125 183.558 196.002C170.158 198.17 154.41 182.465 154.41 182.465C154.41 182.465 165.097 167.571 155.782 151.999C152.259 146.157 151.408 144.746 150.826 144.809C150.641 144.83 150.483 144.999 150.275 145.223C149.412 146.149 147.688 148.001 139.594 144.004C123.406 136.009 140.206 131.335 140.206 131.335L113.549 138.215C113.549 138.215 102.641 160.8 93.1777 150.355C89.8039 148.488 88.7989 147.932 88.0933 147.204C87.7939 146.895 87.5484 146.555 87.1988 146.07C86.0252 144.444 83.6779 141.192 74.1782 132.029C64.3076 122.509 61.3601 117.965 60.8065 115.797L61.83 113.818C61.83 113.818 60.2944 113.791 60.8065 115.797L43.6575 148.958C43.0271 150.203 42.5915 151.313 42.1965 152.32C40.2164 157.367 39.2548 159.818 19.8862 163.605C12.682 164.959 9.941 165.475 9.70856 165.09C9.56579 164.853 10.3692 164.277 11.6661 163.348C15.0747 160.904 21.892 156.017 23.898 148.429C26.5175 137.962 24.0741 137.033 15.9811 133.959C12.7142 132.718 8.52539 131.127 3.37891 128.418V443.248Z" fill="#2C1C0D"/>
<g clip-path="url(#clip0_575_34)">
<path d="M1536.92 475.186L1504.9 505.692C1472.88 535.468 1408.84 597.578 1344.8 621.325C1280.76 645.073 1216.73 634.113 1152.69 627.354C1088.65 621.325 1024.61 621.325 960.572 597.03C896.534 572.003 832.496 524.508 768.458 548.256C704.42 572.003 640.382 670.648 576.343 688.367C512.305 707.183 448.267 645.073 384.229 621.325C320.191 597.578 256.152 608.538 192.114 645.621C128.076 681.608 64.038 743.717 -0.000221252 761.437C-64.0384 780.252 -128.077 754.678 -192.115 718.691C-256.153 681.608 -320.191 634.113 -384.229 609.086C-448.267 584.791 -512.306 584.791 -576.344 597.03C-640.382 608.538 -704.42 634.113 -768.458 621.325C-832.497 608.538 -896.535 561.043 -960.573 566.523C-1024.61 572.003 -1088.65 634.113 -1152.69 676.128C-1216.73 718.143 -1280.76 743.717 -1344.8 749.198C-1408.84 754.678 -1472.88 743.717 -1536.92 749.198C-1600.95 754.678 -1664.99 780.252 -1729.03 785.733C-1793.07 791.213 -1857.11 780.252 -1921.15 779.704C-1985.18 780.252 -2049.22 791.213 -2113.26 755.226C-2177.3 718.143 -2241.34 634.113 -2305.37 627.354C-2369.41 621.325 -2433.45 694.395 -2497.49 688.367C-2561.53 681.608 -2625.57 597.578 -2689.6 597.03C-2753.64 597.578 -2817.68 681.608 -2881.72 682.156C-2945.76 681.608 -3009.79 597.578 -3041.81 554.284L-3073.83 511.721V438.651H-3041.81C-3009.79 438.651 -2945.76 438.651 -2881.72 438.651C-2817.68 438.651 -2753.64 438.651 -2689.6 438.651C-2625.57 438.651 -2561.53 438.651 -2497.49 438.651C-2433.45 438.651 -2369.41 438.651 -2305.37 438.651C-2241.34 438.651 -2177.3 438.651 -2113.26 438.651C-2049.22 438.651 -1985.18 438.651 -1921.15 438.651C-1857.11 438.651 -1793.07 438.651 -1729.03 438.651C-1664.99 438.651 -1600.95 438.651 -1536.92 438.651C-1472.88 438.651 -1408.84 438.651 -1344.8 438.651C-1280.76 438.651 -1216.73 438.651 -1152.69 438.651C-1088.65 438.651 -1024.61 438.651 -960.573 438.651C-896.535 438.651 -832.497 438.651 -768.458 438.651C-704.42 438.651 -640.382 438.651 -576.344 438.651C-512.306 438.651 -448.267 438.651 -384.229 438.651C-320.191 438.651 -256.153 438.651 -192.115 438.651C-128.077 438.651 -64.0384 438.651 -0.000221252 438.651C64.038 438.651 128.076 438.651 192.114 438.651C256.152 438.651 320.191 438.651 384.229 438.651C448.267 438.651 512.305 438.651 576.343 438.651C640.382 438.651 704.42 438.651 768.458 438.651C832.496 438.651 896.534 438.651 960.572 438.651C1024.61 438.651 1088.65 438.651 1152.69 438.651C1216.73 438.651 1280.76 438.651 1344.8 438.651C1408.84 438.651 1472.88 438.651 1504.9 438.651H1536.92V475.186Z" fill="url(#paint0_linear_575_34)"/>
</g>
<defs>
<linearGradient id="paint0_linear_575_34" x1="1536.92" y1="438.651" x2="1536.92" y2="787.263" gradientUnits="userSpaceOnUse">
<stop stop-color="#2C1C0D"/>
<stop offset="1"/>
</linearGradient>
<clipPath id="clip0_575_34">
<rect width="1536.92" height="365.349" fill="white" transform="matrix(-1 0 0 -1 1536.92 804)"/>
</clipPath>
</defs>
</svg>
