<svg width="24" height="23" viewBox="0 0 24 23" fill="none" xmlns="http://www.w3.org/2000/svg">
<g clip-path="url(#clip0_314_516)">
<path d="M0 2.38679C0 1.0686 0.832372 0 1.85915 0H22.1408C23.1676 0 24 1.0686 24 2.38679C24 3.70498 23.1676 4.77358 22.1408 4.77358H1.85916C0.832373 4.77358 0 3.70498 0 2.38679Z" fill="#D9D9D9"/>
<path d="M0 11.5C0 10.1818 0.832372 9.11321 1.85915 9.11321H22.1408C23.1676 9.11321 24 10.1818 24 11.5C24 12.8182 23.1676 13.8868 22.1408 13.8868H1.85916C0.832373 13.8868 0 12.8182 0 11.5Z" fill="#D9D9D9"/>
<path d="M1.85915 18.2264C0.832372 18.2264 0 19.295 0 20.6132C0 21.9314 0.832373 23 1.85916 23H22.1408C23.1676 23 24 21.9314 24 20.6132C24 19.295 23.1676 18.2264 22.1408 18.2264H1.85915Z" fill="#D9D9D9"/>
</g>
<defs>
<clipPath id="clip0_314_516">
<rect width="24" height="23" fill="white"/>
</clipPath>
</defs>
</svg>
