<svg width="243" height="244" viewBox="0 0 243 244" fill="none" xmlns="http://www.w3.org/2000/svg">
<path d="M121.844 0.527355V0.5C147.33 0.771621 172.812 3.07173 202.195 7.47122C217.603 9.77827 229.457 19.537 232 31.7472C239.102 65.8494 242.645 94.2132 242.836 121.986H242.844C242.653 149.759 239.11 178.123 232.008 212.225C229.465 224.436 217.611 234.194 202.204 236.501C172.817 240.902 147.333 243.201 121.844 243.473V243.5C96.355 243.229 70.8705 240.929 41.4839 236.529C26.0767 234.222 14.2225 224.463 11.6796 212.253C4.57741 178.151 1.03436 149.787 0.84375 122.014H0.851868C1.04248 94.2405 4.58553 65.8767 11.6877 31.7746C14.2307 19.5643 26.0848 9.80563 41.492 7.49858C70.8755 3.09909 96.3577 0.798976 121.844 0.527355Z" fill="#D3D3D3"/>
<path d="M121.844 0.527355V0.5C147.33 0.771621 172.812 3.07173 202.195 7.47122C217.603 9.77827 229.457 19.537 232 31.7472C239.102 65.8494 242.645 94.2132 242.836 121.986H242.844C242.653 149.759 239.11 178.123 232.008 212.225C229.465 224.436 217.611 234.194 202.204 236.501C172.817 240.902 147.333 243.201 121.844 243.473V243.5C96.355 243.229 70.8705 240.929 41.4839 236.529C26.0767 234.222 14.2225 224.463 11.6796 212.253C4.57741 178.151 1.03436 149.787 0.84375 122.014H0.851868C1.04248 94.2405 4.58553 65.8767 11.6877 31.7746C14.2307 19.5643 26.0848 9.80563 41.492 7.49858C70.8755 3.09909 96.3577 0.798976 121.844 0.527355Z" fill="url(#paint0_diamond_579_9)" fill-opacity="0.15"/>
<defs>
<radialGradient id="paint0_diamond_579_9" cx="0" cy="0" r="1" gradientUnits="userSpaceOnUse" gradientTransform="translate(-49.5 124) rotate(46.5018) scale(283.294 282.128)">
<stop offset="0.0167604" stop-color="white"/>
<stop offset="0.934889" stop-color="#3F401D"/>
</radialGradient>
</defs>
</svg>
