<svg width="944" height="125" viewBox="0 0 944 125" fill="none" xmlns="http://www.w3.org/2000/svg">
<path d="M0 135L120 115.2C240 95 480 56 720 52.8C960 50 1200 84 1440 92.5C1680 101 1920 84 2160 86.8C2400 90 2640 112 2880 115.2C3120 118 3360 101 3600 92.5C3840 84 4080 84 4320 75.5C4560 67 4800 50 5040 58.5C5280 67 5520 101 5760 106.7C6000 112 6240 90 6480 69.8C6720 50 6960 33 7200 41.5C7440 50 7680 84 7920 89.7C8160 95 8400 73 8640 69.8C8880 67 9120 84 9360 81.2C9600 78 9840 56 10080 58.5C10320 61 10560 90 10800 98.2C11040 107 11280 95 11520 72.7C11760 50 12000 16 12240 4.7C12480 -7 12720 5 12960 30.2C13200 56 13440 95 13680 103.8C13920 112 14160 90 14400 86.8C14640 84 14880 101 15120 86.8C15360 73 15600 27 15840 18.8C16080 10 16320 39 16560 52.8C16800 67 17040 67 17160 67H17280V152H17160C17040 152 16800 152 16560 152C16320 152 16080 152 15840 152C15600 152 15360 152 15120 152C14880 152 14640 152 14400 152C14160 152 13920 152 13680 152C13440 152 13200 152 12960 152C12720 152 12480 152 12240 152C12000 152 11760 152 11520 152C11280 152 11040 152 10800 152C10560 152 10320 152 10080 152C9840 152 9600 152 9360 152C9120 152 8880 152 8640 152C8400 152 8160 152 7920 152C7680 152 7440 152 7200 152C6960 152 6720 152 6480 152C6240 152 6000 152 5760 152C5520 152 5280 152 5040 152C4800 152 4560 152 4320 152C4080 152 3840 152 3600 152C3360 152 3120 152 2880 152C2640 152 2400 152 2160 152C1920 152 1680 152 1440 152C1200 152 960 152 720 152C480 152 240 152 120 152H0V135Z" fill="#7A843B"/>
</svg>
